<svg xmlns="http://www.w3.org/2000/svg" viewBox="0 0 157.65 85.46"><defs><style>.cls-1{fill:#c0bfbf;}.cls-2,.cls-4,.cls-7{fill:#fff;}.cls-2,.cls-6{opacity:0.5;}.cls-3{fill:#e5e5e5;}.cls-5{fill:none;}.cls-5,.cls-7{stroke:#c0bfbf;stroke-miterlimit:10;}.cls-8{fill:#8e8e8e;}.cls-9{fill:#4c4c4c;}</style></defs><title>选择数据类型</title><g id="图层_2" data-name="图层 2"><g id="图层_1-2" data-name="图层 1"><rect class="cls-1" x="18.16" width="33.47" height="85.46" rx="1.69" ry="1.69"/><path class="cls-2" d="M49.7,0H27.93L39.5,85.46H49.7a1.93,1.93,0,0,0,1.93-1.93V1.93A1.93,1.93,0,0,0,49.7,0Z"/><path class="cls-3" d="M18.16,1.93v81.6a1.92,1.92,0,0,0,1.92,1.93H39.5L27.93,0H20.08A1.92,1.92,0,0,0,18.16,1.93Z"/><rect class="cls-1" x="20.87" y="3.04" width="28.04" height="4.48"/><rect class="cls-1" x="20.87" y="9.62" width="28.04" height="4.48"/><rect class="cls-1" x="20.87" y="16.21" width="28.04" height="4.48"/><rect class="cls-1" x="20.87" y="22.8" width="28.04" height="4.48"/><rect class="cls-1" x="20.87" y="29.39" width="28.04" height="4.48"/><circle class="cls-4" cx="22.94" cy="5.28" r="0.77"/><circle class="cls-4" cx="22.94" cy="11.86" r="0.77"/><circle class="cls-4" cx="22.94" cy="18.45" r="0.77"/><circle class="cls-4" cx="22.94" cy="25.04" r="0.77"/><circle class="cls-4" cx="22.94" cy="31.62" r="0.77"/><circle class="cls-4" cx="25.49" cy="5.28" r="0.77"/><circle class="cls-4" cx="25.49" cy="11.86" r="0.77"/><circle class="cls-4" cx="25.49" cy="18.45" r="0.77"/><circle class="cls-4" cx="25.49" cy="25.04" r="0.77"/><circle class="cls-4" cx="25.49" cy="31.62" r="0.77"/><rect class="cls-4" x="42.52" y="4.62" width="4.97" height="1.31" rx="0.57" ry="0.57"/><rect class="cls-4" x="42.52" y="11.21" width="4.97" height="1.31" rx="0.57" ry="0.57"/><rect class="cls-4" x="42.52" y="17.8" width="4.97" height="1.31" rx="0.57" ry="0.57"/><rect class="cls-4" x="42.52" y="24.38" width="4.97" height="1.31" rx="0.57" ry="0.57"/><rect class="cls-4" x="42.52" y="30.97" width="4.97" height="1.31" rx="0.57" ry="0.57"/><path class="cls-1" d="M157,81.8,149.3,58.61h-18L123.54,81.8A2.4,2.4,0,0,0,125.82,85h28.94A2.4,2.4,0,0,0,157,81.8Z"/><path class="cls-3" d="M148,54.82a28.35,28.35,0,0,1-1.48-9V30.91a.8.8,0,0,1,.79-.8h0a.79.79,0,0,0,.8-.79v-.24a.8.8,0,0,0-.8-.8H133.22a.8.8,0,0,0-.8.8v.24a.79.79,0,0,0,.8.79h0a.79.79,0,0,1,.79.8V45.78a28.35,28.35,0,0,1-1.48,9c-.64,1.94-1.26,3.79-1.26,3.79h18S148.69,56.76,148,54.82Z"/><path class="cls-2" d="M145.63,45.8V30.91a.8.8,0,0,0-.8-.8h-.58a.8.8,0,0,0-.8.8V45.72a29.14,29.14,0,0,0,1.45,9.08l7.22,22.14a.87.87,0,0,0,.83.6h.19a.87.87,0,0,0,.83-1.13L147,54.73A29.43,29.43,0,0,1,145.63,45.8Z"/><path class="cls-5" d="M157,81.8s-6.12-18.36-9-27a28.49,28.49,0,0,1-1.47-9V30.91a.8.8,0,0,1,.79-.8h0a.79.79,0,0,0,.8-.79v-.24a.8.8,0,0,0-.8-.8H133.22a.8.8,0,0,0-.8.8v.24a.79.79,0,0,0,.8.79h0a.79.79,0,0,1,.79.8v14.9a28.21,28.21,0,0,1-1.47,9c-2.88,8.62-9,27-9,27A2.4,2.4,0,0,0,125.82,85h28.94A2.4,2.4,0,0,0,157,81.8Z"/><path class="cls-1" d="M111,85.46H69.53A1.82,1.82,0,0,1,68,82.74l4.47-7.8h35.71l4.48,7.8A1.82,1.82,0,0,1,111,85.46Z"/><rect class="cls-1" x="43.27" y="10.42" width="94.03" height="64.89" rx="8.79" ry="8.79"/><rect class="cls-3" x="44.54" y="11.84" width="91.5" height="62.04" rx="7.22" ry="7.22"/><polygon class="cls-2" points="110.47 83.62 107.43 83.62 103.82 76.04 106.81 76.04 110.47 83.62"/><g class="cls-6"><path class="cls-4" d="M128.82,11.84h-46L96.2,73.89h32.62A7.22,7.22,0,0,0,136,66.67V19.06A7.22,7.22,0,0,0,128.82,11.84Z"/></g><rect class="cls-7" x="53.71" y="18.03" width="73.16" height="49.68"/><rect class="cls-1" x="60.6" y="22.8" width="8.6" height="41.54"/><rect class="cls-1" x="73.14" y="41.22" width="8.6" height="23.12"/><rect class="cls-1" x="85.67" y="31.91" width="8.6" height="32.43"/><rect class="cls-1" x="98.21" y="24.3" width="8.6" height="40.04"/><rect class="cls-1" x="110.74" y="24.3" width="8.6" height="40.04"/><rect class="cls-8" x="1.2" y="81.5" width="35.62" height="3.89" rx="1.38" ry="1.38" transform="translate(38.02 166.9) rotate(-180)"/><rect class="cls-9" y="77.7" width="35.62" height="3.89" rx="1.38" ry="1.38" transform="translate(35.62 159.29) rotate(-180)"/><rect class="cls-8" x="1.2" y="73.91" width="35.62" height="3.89" rx="1.38" ry="1.38" transform="translate(38.02 151.71) rotate(-180)"/><rect class="cls-1" x="2.81" y="70.11" width="35.62" height="3.89" rx="1.38" ry="1.38" transform="translate(41.23 144.12) rotate(-180)"/><rect class="cls-8" x="1.2" y="66.31" width="35.62" height="3.89" rx="1.38" ry="1.38" transform="translate(38.02 136.51) rotate(-180)"/><rect class="cls-8" x="26.45" y="70.11" width="35.62" height="3.89" rx="1.38" ry="1.38" transform="translate(24.6 154.31) rotate(-135)"/><rect class="cls-1" x="22.32" y="67.63" width="8.11" height="1.16" transform="translate(52.76 136.42) rotate(-180)"/><rect class="cls-4" x="23.48" y="71.48" width="8.11" height="1.16" transform="translate(55.08 144.12) rotate(-180)"/><rect class="cls-1" x="21.98" y="75.27" width="8.11" height="1.16" transform="translate(52.07 151.71) rotate(-180)"/><rect class="cls-3" x="20.72" y="79.06" width="8.11" height="1.16" transform="translate(49.54 159.29) rotate(-180)"/><rect class="cls-1" x="21.98" y="82.87" width="8.11" height="1.16" transform="translate(52.07 166.9) rotate(-180)"/></g></g></svg>